# xmcd
#
# Track frame offsets:
#	150
#	20627
#	39957
#	72867
#	89554
#	108364
#	128213
#	147595
#	175900
#	192178
#	220608
#	238043
#	255961
#	276751
#	301146
#	321446
#	337731
#
# Disc length: 4723 seconds
#
# Revision: 1
# Processed by: cddbd v1.4PL0 Copyright (c) Steve Scherf et al.
# Submitted via: audiograbber 1.81.02
#
DISCID=ef127111
DTITLE=Sade - Plutinum Collection'2001
DYEAR=2001
DGENRE=R&B
TTITLE0=By Your Side
TTITLE1=Smooth Operator
TTITLE2=No Ordinary Love
TTITLE3=Your Love Is King
TTITLE4=Kiss Of Life
TTITLE5=Sweetest Taboo
TTITLE6=Love Is Stronger Than Pride
TTITLE7=Is It A Crime
TTITLE8=Like A Tattoo
TTITLE9=Cherish The Day
TTITLE10=Nothing Can Come
TTITLE11=Never As good As The First Time
TTITLE12=Pearls
TTITLE13=Jezebel
TTITLE14=Hang On To Your Love
TTITLE15=Paradise
TTITLE16=Please Send Me Someone To Love
EXTD=All Rights Reserved p @ c 2000
EXTT0=
EXTT1=
EXTT2=
EXTT3=
EXTT4=
EXTT5=
EXTT6=
EXTT7=
EXTT8=
EXTT9=
EXTT10=
EXTT11=
EXTT12=
EXTT13=
EXTT14=
EXTT15=
EXTT16=
PLAYORDER=
